<svg xmlns="http://www.w3.org/2000/svg" viewBox="0 0 700 700"><title>FANG-fabicon</title><path d="M69.22,417.93a5.14,5.14,0,0,1-3.79-1.56,4.94,4.94,0,0,1-1.56-3.62v-125a5,5,0,0,1,1.56-3.63,5.17,5.17,0,0,1,3.79-1.55h106a4.91,4.91,0,0,1,3.71,1.55,5.13,5.13,0,0,1,1.47,3.63V313a5.33,5.33,0,0,1-1.47,3.8,4.88,4.88,0,0,1-3.71,1.55H111.69v16.4h46.95a5.11,5.11,0,0,1,3.63,1.47,4.88,4.88,0,0,1,1.55,3.71l-.17,25a5.3,5.3,0,0,1-5.18,5.18H111.69v42.64a5.09,5.09,0,0,1-1.47,3.62,4.87,4.87,0,0,1-3.71,1.56Z"/><path d="M283.28,417.93a5.43,5.43,0,0,1-2.68-.86,4.57,4.57,0,0,1-2-2.08l-8.8-16.91H205.08L196.28,415a5.91,5.91,0,0,1-2.08,2.08,5.21,5.21,0,0,1-2.76.86H155.71a5.5,5.5,0,0,1-5-2.42,4.78,4.78,0,0,1,.18-5.35l71-124.81a4.79,4.79,0,0,1,2.07-1.9,5.7,5.7,0,0,1,2.59-.86H257a5,5,0,0,1,2.59.86,6,6,0,0,1,2.07,2.07l66.81,124.81a5.36,5.36,0,0,1,0,5.27q-1.38,2.32-4.83,2.33ZM222,367.69h32.11l-15.54-30Z"/><path d="M419,337.74l9.84,13.56V287.77a5,5,0,0,1,1.56-3.63,5.17,5.17,0,0,1,3.79-1.55h33.67a5.17,5.17,0,0,1,3.79,1.55,5,5,0,0,1,1.56,3.63v125a4.94,4.94,0,0,1-1.56,3.62,5.14,5.14,0,0,1-3.79,1.56H429.15a5.85,5.85,0,0,1-2.25-.61,5.33,5.33,0,0,1-2.07-1.46l-48.68-65.6v62.49a5,5,0,0,1-1.55,3.62,5.18,5.18,0,0,1-3.8,1.56H337.14a5.31,5.31,0,0,1-5.18-5.18v-125a5.3,5.3,0,0,1,5.18-5.18h38.32a6.11,6.11,0,0,1,2.5.69,3.41,3.41,0,0,1,1.82,1.55q7.59,10.37,14.76,20.11t14.58,19.6Q414.13,331.1,419,337.74Z"/><path d="M539.46,376.33q11,9.32,30.55,9.32,15.54,0,23.65-3.11v-8.63H575.53a5.33,5.33,0,0,1-5.35-5.35v-23a4.87,4.87,0,0,1,1.56-3.71,5.3,5.3,0,0,1,3.79-1.47h55.25a5.3,5.3,0,0,1,3.79,1.47,4.87,4.87,0,0,1,1.56,3.71v60.59a5,5,0,0,1-1.12,3,5.64,5.64,0,0,1-2.68,2,189,189,0,0,1-28.74,6.38,236.87,236.87,0,0,1-35,2.42q-42.64,0-65.25-16.49t-22.62-50.83q0-33.68,23.31-53.35Q527.37,280,565,280a212,212,0,0,1,33,2.33,178.37,178.37,0,0,1,23.65,5.09,4.91,4.91,0,0,1,2.5,1.64,5,5,0,0,1,1.29,2.68l2.94,24a5.14,5.14,0,0,1-1.73,4.75,5,5,0,0,1-5,.95q-9.33-2.76-22.45-5.35-6.37-1.2-12.86-1.9a122.79,122.79,0,0,0-13-.69q-20.37,0-32.8,10.36-11.91,10.35-11.91,27.27Q528.58,367,539.46,376.33Z"/></svg>