<svg xmlns="http://www.w3.org/2000/svg" viewBox="0 0 314.33 76.9"><title>FANGrogo</title><path d="M2.94,75.76a2.84,2.84,0,0,1-2.09-.85,2.72,2.72,0,0,1-.85-2V4.27a2.7,2.7,0,0,1,.85-2,2.85,2.85,0,0,1,2.09-.86H61.16a2.7,2.7,0,0,1,2,.86,2.77,2.77,0,0,1,.8,2V18.11a2.92,2.92,0,0,1-.8,2.09,2.69,2.69,0,0,1-2,.85H26.27v9H52.06a2.83,2.83,0,0,1,2,.8,2.69,2.69,0,0,1,.85,2l-.09,13.75A2.94,2.94,0,0,1,52,49.5H26.27V72.92a2.8,2.8,0,0,1-.81,2,2.69,2.69,0,0,1-2,.85Z"/><path d="M120.52,75.76a2.89,2.89,0,0,1-1.47-.47A2.52,2.52,0,0,1,118,74.15l-4.84-9.29H77.56l-4.83,9.29a3.35,3.35,0,0,1-1.14,1.14,2.81,2.81,0,0,1-1.52.47H50.44a3,3,0,0,1-2.75-1.32,2.65,2.65,0,0,1,.1-2.94l39-68.56a2.6,2.6,0,0,1,1.14-1,3.08,3.08,0,0,1,1.42-.48H106.1a2.71,2.71,0,0,1,1.43.48A3.33,3.33,0,0,1,108.67,3l36.69,68.56a2.91,2.91,0,0,1,0,2.89,2.82,2.82,0,0,1-2.65,1.28ZM86.86,48.17h17.63L96,31.67Z"/><path d="M195.05,31.72l5.4,7.44V4.27a2.71,2.71,0,0,1,.86-2,2.81,2.81,0,0,1,2.08-.86h18.49a2.85,2.85,0,0,1,2.09.86,2.7,2.7,0,0,1,.85,2V72.92a2.72,2.72,0,0,1-.85,2,2.84,2.84,0,0,1-2.09.85H200.64a3.23,3.23,0,0,1-1.23-.33,2.83,2.83,0,0,1-1.14-.81l-26.74-36V72.92a2.72,2.72,0,0,1-.85,2,2.84,2.84,0,0,1-2.09.85H150.1a2.9,2.9,0,0,1-2.84-2.84V4.27a2.7,2.7,0,0,1,.85-2,2.73,2.73,0,0,1,2-.86h21.05a3.43,3.43,0,0,1,1.38.38,1.88,1.88,0,0,1,1,.86l8.11,11q3.93,5.36,8,10.76Q192.39,28.08,195.05,31.72Z"/><path d="M261.23,52.91Q267.3,58,278,58c5.69,0,10-.57,13-1.71V51.58h-10a2.9,2.9,0,0,1-2.94-2.94V36a2.72,2.72,0,0,1,.85-2,3,3,0,0,1,2.09-.8h30.34a3,3,0,0,1,2.09.8,2.69,2.69,0,0,1,.85,2V69.31a2.69,2.69,0,0,1-.61,1.66,3,3,0,0,1-1.47,1.09,103,103,0,0,1-15.79,3.51,129.22,129.22,0,0,1-19.2,1.33q-23.43,0-35.85-9.06T229,39.92q0-18.5,12.8-29.3Q254.6,0,275.27,0a116.63,116.63,0,0,1,18.11,1.28,97.83,97.83,0,0,1,13,2.8,2.61,2.61,0,0,1,1.37.9,2.73,2.73,0,0,1,.71,1.47l1.62,13.18a2.85,2.85,0,0,1-.95,2.61,2.77,2.77,0,0,1-2.75.52q-5.13-1.52-12.33-2.94-3.51-.66-7.06-1.05a68.25,68.25,0,0,0-7.16-.37q-11.19,0-18,5.68a18.91,18.91,0,0,0-6.54,15Q255.26,47.79,261.23,52.91Z"/></svg>